<svg width="50" height="14" viewBox="0 0 50 14" fill="none" xmlns="http://www.w3.org/2000/svg">
<path d="M0 13.56H1.3L2.46 9.84L9.36 9.82L10.5 13.56H11.8L8.04 1.6C7.7 0.52 6.9 0 5.9 0C4.9 0 4.1 0.52 3.76 1.6L0 13.56ZM4.88 1.98C5.04 1.42 5.36 1.16 5.9 1.16C6.44 1.16 6.76 1.42 6.94 1.98L9 8.66H2.82L4.88 1.98Z" fill="#F4F2ED"/>
<path d="M17.1737 0.2H15.8938V12.3C15.8938 13.08 16.2337 13.56 17.1737 13.56H24.1537V12.36H17.1737V0.2Z" fill="#F4F2ED"/>
<path d="M31.1356 13.78C32.1956 13.78 33.0356 13.14 33.4356 11.86L37.0156 0.2H35.6956L32.2356 11.6C32.0356 12.26 31.6956 12.62 31.1356 12.62C30.5756 12.62 30.2356 12.26 30.0356 11.6L26.5556 0.2H25.2356L28.8156 11.86C29.2156 13.14 30.0556 13.78 31.1356 13.78Z" fill="#F4F2ED"/>
<path d="M44.983 13.56V9.12C45.623 8.92 46.143 8.38 46.523 7.48L49.763 0.2H48.383L45.383 7.14C45.103 7.74 44.843 8.08 44.363 8.08C43.863 8.08 43.603 7.74 43.323 7.14L40.343 0.2H38.963L42.163 7.48C42.563 8.38 43.063 8.92 43.703 9.12V13.56H44.983Z" fill="#F4F2ED"/>
</svg>
